HIERARCHY
ROOT Hips
{
	OFFSET 0.000000 83.214638 0.000000
	CHANNELS 6 Xposition Yposition Zposition Xrotation Yrotation Zrotation
	JOINT Pelvis
	{
		OFFSET 0.000000 0.000000 0.000000
		CHANNELS 3 Xrotation Yrotation Zrotation
		JOINT LeftUpLeg
		{
			OFFSET 8.479700 -4.795502 -0.379100
			CHANNELS 3 Xrotation Yrotation Zrotation
			JOINT LeftLeg
			{
				OFFSET 0.024144 -32.555107 0.112900
				CHANNELS 3 Xrotation Yrotation Zrotation
				JOINT LeftFoot
				{
					OFFSET -0.024144 -32.638630 -3.012600
					CHANNELS 3 Xrotation Yrotation Zrotation
					JOINT LeftToeBase
					{
						OFFSET 0.970200 -13.225400 11.864200
						CHANNELS 3 Xrotation Yrotation Zrotation
						End Site
						{
							OFFSET 0.000000 12.319262 0.000000
						}
					}
					JOINT LFootTongue
					{
						OFFSET 1.142400 -1.059800 6.665200
						CHANNELS 3 Xrotation Yrotation Zrotation
						End Site
						{
							OFFSET 0.000000 12.319262 0.000000
						}
					}
				}
				JOINT LeftPantLeg
				{
					OFFSET 0.918482 -16.533964 -2.284700
					CHANNELS 3 Xrotation Yrotation Zrotation
					End Site
					{
						OFFSET 0.350399 24.744368 0.000000
					}
				}
			}
		}
		JOINT RightUpLeg
		{
			OFFSET -8.479700 -4.795502 -0.379100
			CHANNELS 3 Xrotation Yrotation Zrotation
			JOINT RightLeg
			{
				OFFSET -0.023144 -32.555092 0.112900
				CHANNELS 3 Xrotation Yrotation Zrotation
				JOINT RightFoot
				{
					OFFSET 0.023144 -32.638641 -3.012700
					CHANNELS 3 Xrotation Yrotation Zrotation
					JOINT RightToeBase
					{
						OFFSET -0.970200 -13.225400 11.864200
						CHANNELS 3 Xrotation Yrotation Zrotation
						End Site
						{
							OFFSET 0.000000 12.319244 0.000000
						}
					}
					JOINT RFootTongue
					{
						OFFSET -1.142200 -1.059800 6.665200
						CHANNELS 3 Xrotation Yrotation Zrotation
						End Site
						{
							OFFSET 0.000000 12.319243 0.000000
						}
					}
				}
				JOINT RightPantLeg
				{
					OFFSET -0.919482 -16.533978 -2.284800
					CHANNELS 3 Xrotation Yrotation Zrotation
					End Site
					{
						OFFSET -0.350400 24.744419 0.000000
					}
				}
			}
		}
	}
	JOINT Spine
	{
		OFFSET 0.000000 7.722000 1.166200
		CHANNELS 3 Xrotation Yrotation Zrotation
		JOINT Spine1
		{
			OFFSET 0.000000 12.024101 0.248800
			CHANNELS 3 Xrotation Yrotation Zrotation
			JOINT Spine2
			{
				OFFSET 0.000000 11.502998 -0.491200
				CHANNELS 3 Xrotation Yrotation Zrotation
				JOINT Neck
				{
					OFFSET 0.000000 18.430702 -3.123100
					CHANNELS 3 Xrotation Yrotation Zrotation
					JOINT Head
					{
						OFFSET 0.000000 9.051102 1.034000
						CHANNELS 3 Xrotation Yrotation Zrotation
						JOINT HairB
						{
							OFFSET 0.208400 24.786102 24.822300
							CHANNELS 3 Xrotation Yrotation Zrotation
							End Site
							{
								OFFSET 0.000000 32.263779 0.000000
							}
						}
						JOINT HairA
						{
							OFFSET -7.081100 24.428299 23.196600
							CHANNELS 3 Xrotation Yrotation Zrotation
							End Site
							{
								OFFSET 0.000000 32.263779 0.000000
							}
						}
						JOINT Hat
						{
							OFFSET 16.728800 15.048294 -15.439601
							CHANNELS 3 Xrotation Yrotation Zrotation
							End Site
							{
								OFFSET 0.000000 32.263779 0.000000
							}
						}
					}
				}
				JOINT LeftShoulder
				{
					OFFSET 6.197800 13.665199 -4.064700
					CHANNELS 3 Xrotation Yrotation Zrotation
					JOINT LeftArm
					{
						OFFSET 7.778100 -0.187103 -1.709300
						CHANNELS 3 Xrotation Yrotation Zrotation
						JOINT LeftForeArm
						{
							OFFSET 22.049376 0.000000 0.000000
							CHANNELS 3 Xrotation Yrotation Zrotation
							JOINT LeftHand
							{
								OFFSET 23.009392 0.000000 0.000000
								CHANNELS 3 Xrotation Yrotation Zrotation
								JOINT LeftHandThumb1
								{
									OFFSET 3.507191 -2.063065 3.133727
									CHANNELS 3 Xrotation Yrotation Zrotation
									JOINT LeftHandThumb2
									{
										OFFSET 3.101337 -1.790558 1.790558
										CHANNELS 3 Xrotation Yrotation Zrotation
										JOINT LeftHandThumb3
										{
											OFFSET 3.058640 -1.765907 1.765906
											CHANNELS 3 Xrotation Yrotation Zrotation
											End Site
											{
												OFFSET -0.415260 3.926476 -0.049563
											}
										}
									}
								}
								JOINT LeftHandIndex1
								{
									OFFSET 11.334419 -0.901459 3.706815
									CHANNELS 3 Xrotation Yrotation Zrotation
									JOINT LeftHandIndex2
									{
										OFFSET 3.283112 0.000000 0.000000
										CHANNELS 3 Xrotation Yrotation Zrotation
										JOINT LeftHandIndex3
										{
											OFFSET 3.323853 0.000000 0.000000
											CHANNELS 3 Xrotation Yrotation Zrotation
											End Site
											{
												OFFSET -1.135597 3.097809 0.402452
											}
										}
									}
								}
								JOINT LeftHandMiddle1
								{
									OFFSET 11.335861 0.000000 0.000000
									CHANNELS 3 Xrotation Yrotation Zrotation
									JOINT LeftHandMiddle2
									{
										OFFSET 3.410492 0.000000 0.000000
										CHANNELS 3 Xrotation Yrotation Zrotation
										JOINT LeftHandMiddle3
										{
											OFFSET 3.312172 0.000000 0.000000
											CHANNELS 3 Xrotation Yrotation Zrotation
											End Site
											{
												OFFSET -1.150200 3.080154 0.400270
											}
										}
									}
								}
								JOINT LeftHandRing1
								{
									OFFSET 11.514786 -0.013176 -3.003090
									CHANNELS 3 Xrotation Yrotation Zrotation
									JOINT LeftHandRing2
									{
										OFFSET 3.053307 0.000000 0.000000
										CHANNELS 3 Xrotation Yrotation Zrotation
										JOINT LeftHandRing3
										{
											OFFSET 3.295807 0.000000 0.000000
											CHANNELS 3 Xrotation Yrotation Zrotation
											End Site
											{
												OFFSET -1.281006 3.013344 0.375733
											}
										}
									}
								}
								JOINT LeftHandPinky1
								{
									OFFSET 10.518692 -0.960396 -5.730441
									CHANNELS 3 Xrotation Yrotation Zrotation
									JOINT LeftHandPinky2
									{
										OFFSET 2.861649 0.000000 0.000000
										CHANNELS 3 Xrotation Yrotation Zrotation
										JOINT LeftHandPinky3
										{
											OFFSET 2.863380 0.000000 0.000000
											CHANNELS 3 Xrotation Yrotation Zrotation
											End Site
											{
												OFFSET -0.843597 2.711159 0.369971
											}
										}
									}
								}
							}
							JOINT LSleeve
							{
								OFFSET 6.676277 -0.344902 -1.011730
								CHANNELS 3 Xrotation Yrotation Zrotation
								End Site
								{
									OFFSET 0.000000 14.885353 0.000000
								}
							}
						}
					}
				}
				JOINT RightShoulder
				{
					OFFSET -6.197800 13.665199 -4.064700
					CHANNELS 3 Xrotation Yrotation Zrotation
					JOINT RightArm
					{
						OFFSET -7.778100 -0.187103 -1.709300
						CHANNELS 3 Xrotation Yrotation Zrotation
						JOINT RightForeArm
						{
							OFFSET -22.049376 0.000000 0.000000
							CHANNELS 3 Xrotation Yrotation Zrotation
							JOINT RightHand
							{
								OFFSET -23.009392 0.000000 0.000000
								CHANNELS 3 Xrotation Yrotation Zrotation
								JOINT RightHandThumb1
								{
									OFFSET -3.507191 -2.063065 3.133727
									CHANNELS 3 Xrotation Yrotation Zrotation
									JOINT RightHandThumb2
									{
										OFFSET -3.101337 -1.790558 1.790558
										CHANNELS 3 Xrotation Yrotation Zrotation
										JOINT RightHandThumb3
										{
											OFFSET -3.058640 -1.765907 1.765906
											CHANNELS 3 Xrotation Yrotation Zrotation
											End Site
											{
												OFFSET 0.415260 3.926476 -0.049563
											}
										}
									}
								}
								JOINT RightHandIndex1
								{
									OFFSET -11.334419 -0.901459 3.706815
									CHANNELS 3 Xrotation Yrotation Zrotation
									JOINT RightHandIndex2
									{
										OFFSET -3.283112 0.000000 0.000000
										CHANNELS 3 Xrotation Yrotation Zrotation
										JOINT RightHandIndex3
										{
											OFFSET -3.323853 0.000000 0.000000
											CHANNELS 3 Xrotation Yrotation Zrotation
											End Site
											{
												OFFSET 1.135597 3.097809 0.402452
											}
										}
									}
								}
								JOINT RightHandMiddle1
								{
									OFFSET -11.335861 0.000000 0.000000
									CHANNELS 3 Xrotation Yrotation Zrotation
									JOINT RightHandMiddle2
									{
										OFFSET -3.410492 0.000000 0.000000
										CHANNELS 3 Xrotation Yrotation Zrotation
										JOINT RightHandMiddle3
										{
											OFFSET -3.312172 0.000000 0.000000
											CHANNELS 3 Xrotation Yrotation Zrotation
											End Site
											{
												OFFSET 1.150200 3.080154 0.400270
											}
										}
									}
								}
								JOINT RightHandRing1
								{
									OFFSET -11.514786 -0.013176 -3.003090
									CHANNELS 3 Xrotation Yrotation Zrotation
									JOINT RightHandRing2
									{
										OFFSET -3.053307 0.000000 0.000000
										CHANNELS 3 Xrotation Yrotation Zrotation
										JOINT RightHandRing3
										{
											OFFSET -3.295807 0.000000 0.000000
											CHANNELS 3 Xrotation Yrotation Zrotation
											End Site
											{
												OFFSET 1.281006 3.013344 0.375733
											}
										}
									}
								}
								JOINT RightHandPinky1
								{
									OFFSET -10.518692 -0.960396 -5.730441
									CHANNELS 3 Xrotation Yrotation Zrotation
									JOINT RightHandPinky2
									{
										OFFSET -2.861649 0.000000 0.000000
										CHANNELS 3 Xrotation Yrotation Zrotation
										JOINT RightHandPinky3
										{
											OFFSET -2.863380 0.000000 0.000000
											CHANNELS 3 Xrotation Yrotation Zrotation
											End Site
											{
												OFFSET 0.843597 2.711159 0.369971
											}
										}
									}
								}
							}
							JOINT RSleeve
							{
								OFFSET -6.676277 -0.344902 -1.011730
								CHANNELS 3 Xrotation Yrotation Zrotation
								End Site
								{
									OFFSET 0.000000 14.885353 0.000000
								}
							}
						}
					}
				}
				JOINT Backpack
				{
					OFFSET 0.000000 -2.471497 36.677502
					CHANNELS 3 Xrotation Yrotation Zrotation
					End Site
					{
						OFFSET 0.000000 20.427315 0.000000
					}
				}
				JOINT Hood
				{
					OFFSET 0.000000 18.754097 -10.431000
					CHANNELS 3 Xrotation Yrotation Zrotation
					JOINT Hood1
					{
						OFFSET 0.000000 -5.011002 -7.685901
						CHANNELS 3 Xrotation Yrotation Zrotation
						End Site
						{
							OFFSET 0.000000 9.175140 0.000000
						}
					}
				}
				JOINT LHoodieString
				{
					OFFSET 5.250500 16.397697 3.089900
					CHANNELS 3 Xrotation Yrotation Zrotation
					JOINT LHoodieString1
					{
						OFFSET 0.257700 -6.364304 3.694600
						CHANNELS 3 Xrotation Yrotation Zrotation
						JOINT LHoodieString2
						{
							OFFSET 0.000000 -9.643799 2.679100
							CHANNELS 3 Xrotation Yrotation Zrotation
							End Site
							{
								OFFSET 0.000000 10.009018 0.000000
							}
						}
					}
				}
				JOINT RHoodieString
				{
					OFFSET -5.250500 16.397697 3.089900
					CHANNELS 3 Xrotation Yrotation Zrotation
					JOINT RHoodieString1
					{
						OFFSET -0.257700 -6.364304 3.694600
						CHANNELS 3 Xrotation Yrotation Zrotation
						JOINT RHoodieString2
						{
							OFFSET 0.000000 -9.643799 2.679100
							CHANNELS 3 Xrotation Yrotation Zrotation
							End Site
							{
								OFFSET 0.000000 10.009018 0.000000
							}
						}
					}
				}
			}
			JOINT LBackpack_Strap
			{
				OFFSET 15.223200 -7.719803 -6.610900
				CHANNELS 3 Xrotation Yrotation Zrotation
				End Site
				{
					OFFSET 0.000000 16.040596 0.000000
				}
			}
			JOINT RBackpack_Strap
			{
				OFFSET -15.223000 -7.719803 -6.610900
				CHANNELS 3 Xrotation Yrotation Zrotation
				End Site
				{
					OFFSET 0.000000 16.040596 0.000000
				}
			}
		}
	}
	JOINT BoyFacialAnim_Joint
	{
		OFFSET 1.000000 -82.208099 -1.550900
		CHANNELS 3 Xrotation Yrotation Zrotation
		End Site
		{
			OFFSET 0.000000 30.012791 0.000000
		}
	}
}
MOTION
Frames: 4
Frame Time: 0.033333
-0.086930 84.950363 -0.770952 -3.823163 3.898431 -2.558420 0.000000 -0.000000 0.000000 -14.454871 6.652837 12.571947 23.982686 -5.210674 -0.400126 21.049301 6.730922 -10.212356 -0.000000 -0.000000 0.000000 -0.000000 -0.000000 0.000000 0.000000 -0.000001 0.000000 -9.968831 -3.935293 6.020009 21.149537 6.078371 0.465392 19.617055 -3.830761 -3.972059 -0.000002 -0.000000 -0.000000 -0.000002 -0.000000 -0.000000 -0.000000 -0.000000 0.000000 5.988213 0.223265 2.706986 -3.550191 0.586459 0.346679 -3.529466 0.741178 0.341944 2.004351 -0.186726 1.450229 2.163149 0.933400 -0.591277 0.000000 0.000000 0.000000 0.000000 0.000000 0.000000 0.000000 0.000000 0.000000 3.238141 -7.216389 -2.362682 -2.386275 17.298557 -78.297744 0.076719 -11.893694 -2.055625 -1.157246 2.633390 1.090899 10.756193 -0.276876 15.888943 -0.880921 26.402941 -5.959899 0.000000 -0.000001 0.000002 1.188905 0.646892 -5.021620 -1.786468 1.895369 -16.721270 0.000000 0.000000 -0.000002 -1.911368 4.426640 -9.349141 -0.022958 4.067417 -23.702426 0.000000 -0.000001 0.000000 -3.667774 10.861649 -6.837857 2.992253 3.448160 -29.220055 -0.000000 0.000000 -0.000002 -4.041956 12.927759 -17.158002 8.429371 2.581996 -31.029870 -0.000001 -0.000001 0.000003 -0.000001 0.000002 0.000000 3.343532 -0.133899 4.446277 4.378613 -6.233150 76.335226 -0.421559 16.015441 0.267621 -0.393411 -6.586837 -2.083700 15.798731 -2.798474 -17.233669 -2.088311 -31.111600 7.333939 -0.000000 0.000001 0.000001 2.362214 -3.636373 8.332143 -2.157218 -2.437994 18.528114 -0.000000 -0.000001 0.000003 -1.983296 -5.674610 13.528959 0.253963 -5.076557 26.884004 0.000001 0.000001 -0.000002 -4.977987 -10.103401 10.693309 4.025794 -4.043569 33.181974 -0.000001 0.000000 0.000002 -6.473234 -11.328731 23.223476 10.712098 -2.553460 34.778244 0.000000 -0.000000 -0.000003 0.000000 0.000001 -0.000001 -0.000000 -0.000000 -0.000000 -0.000000 -0.000000 -0.000000 -0.000000 -0.000000 -0.000000 -0.000000 -0.000000 -0.000000 -0.000000 -0.000000 -0.000000 -0.000000 -0.000000 0.000000 -0.000000 -0.000000 -0.000000 -0.000000 -0.000000 -0.000000 -0.000000 -0.000000 0.000000 -0.000000 -0.000001 -0.000000 -0.000000 -0.000001 -0.000000 0.000000 -0.000000 0.000000 
0.219605 84.963127 -0.438777 -3.809115 4.075665 -1.920407 0.000000 0.000000 0.000000 -14.021279 7.041376 11.614936 23.664181 -5.008259 -0.367989 20.952358 6.757320 -9.907527 -0.000000 -0.000001 0.000001 -0.000000 -0.000001 0.000001 0.000001 0.000000 -0.000001 -10.047010 -4.080084 4.932578 21.903098 6.411969 0.632399 18.815438 -3.787153 -3.852921 -0.000000 0.000000 -0.000000 -0.000000 0.000000 -0.000000 -0.000001 0.000001 0.000000 5.739611 0.283959 2.572847 -3.424745 0.624948 0.388660 -3.405911 0.781012 0.384414 2.233634 -0.373042 1.489610 2.154328 0.750861 -0.539060 -0.000000 0.000000 -0.000000 -0.000000 0.000000 -0.000000 -0.000000 0.000000 -0.000000 3.231828 -7.118866 -2.308152 -2.226797 17.811803 -78.292997 -0.062983 -11.707799 -2.032346 -1.157742 2.515733 1.168303 10.754705 -0.291886 15.943004 -0.905457 26.398567 -5.970780 -0.000000 -0.000002 -0.000000 1.190729 0.665510 -5.051520 -1.786483 1.895815 -16.742914 -0.000001 0.000001 -0.000002 -1.911110 4.427583 -9.404632 -0.021488 4.067746 -23.751822 0.000001 -0.000000 -0.000001 -3.672976 10.857807 -6.894171 2.996389 3.449487 -29.276547 0.000002 0.000001 -0.000002 -4.054646 12.916178 -17.210777 8.429358 2.582011 -31.029901 -0.000000 0.000001 0.000003 -0.000000 0.000001 0.000001 3.318202 -0.005167 4.429313 4.339206 -6.368896 76.268645 -0.178303 16.231429 0.111621 -0.364549 -6.809253 -1.970780 15.794228 -2.785663 -17.234505 -2.114501 -31.071091 7.330019 0.000002 0.000000 0.000003 2.361692 -3.630578 8.311099 -2.157196 -2.437549 18.507026 -0.000000 0.000000 0.000002 -1.983456 -5.674142 13.500661 0.253110 -5.076393 26.855566 0.000001 -0.000000 0.000005 -4.977862 -10.103060 10.676277 4.025803 -4.043154 33.164451 -0.000000 -0.000000 -0.000003 -6.474247 -11.328311 23.186856 10.711530 -2.552843 34.740917 -0.000000 -0.000001 -0.000003 -0.000000 -0.000000 -0.000001 -0.000000 0.000000 -0.000000 -0.000000 0.000000 -0.000000 -0.000000 0.000000 -0.000000 -0.000000 0.000000 -0.000000 -0.000000 0.000000 0.000000 0.000000 -0.000000 -0.000000 -0.000000 0.000000 -0.000000 -0.000000 0.000000 0.000000 0.000000 -0.000000 -0.000000 0.000000 -0.000000 0.000000 0.000000 -0.000000 0.000000 0.000000 0.000000 0.000000 
0.786614 84.982712 -0.037662 -3.632997 4.310228 -1.204774 0.000001 -0.000001 0.000000 -13.697205 7.512169 10.362090 23.381705 -4.885820 -0.338630 20.733278 6.793438 -9.341029 0.000000 -0.000001 0.000000 0.000000 -0.000001 0.000001 -0.000001 0.000000 -0.000000 -10.353821 -3.634324 3.704696 22.800672 6.218188 0.668896 17.920442 -3.773698 -3.317746 -0.000000 0.000000 0.000000 -0.000000 0.000000 0.000000 -0.000002 0.000001 0.000000 5.147386 0.278417 2.213667 -3.241411 0.637969 0.399851 -3.224770 0.793611 0.398119 2.501835 -0.542896 1.587724 2.360383 0.613128 -0.559391 -0.000000 -0.000000 -0.000000 -0.000000 -0.000000 -0.000000 -0.000000 -0.000000 -0.000000 3.216412 -6.930146 -2.271176 -2.116634 18.194033 -78.093849 0.346016 -11.277676 -1.910248 -1.141506 2.273441 1.131446 10.750685 -0.332317 16.088396 -0.974718 26.393316 -5.994180 0.000004 -0.000001 -0.000002 1.205299 0.714504 -5.132203 -1.786504 1.896975 -16.801085 -0.000003 0.000002 -0.000001 -1.910530 4.446720 -9.552995 -0.016796 4.084079 -23.884138 -0.000000 -0.000001 0.000002 -3.691703 10.842721 -7.045016 3.012330 3.452987 -29.428498 -0.000000 0.000000 -0.000002 -4.088890 12.885201 -17.352772 8.429359 2.581993 -31.029911 0.000001 0.000000 0.000002 -0.000001 -0.000002 0.000002 3.286757 0.022648 4.409809 4.172128 -6.256487 76.227131 0.105069 16.415643 -0.060532 -0.340470 -6.918061 -1.899688 15.787472 -2.753730 -17.226034 -2.188553 -30.964099 7.320375 0.000001 -0.000002 0.000003 2.359721 -3.609673 8.254291 -2.157250 -2.436419 18.450335 0.000000 0.000000 0.000002 -1.983859 -5.672838 13.424493 0.250847 -5.075956 26.779116 0.000001 0.000001 -0.000004 -4.979860 -10.102033 10.629842 4.025915 -4.042026 33.117668 -0.000000 -0.000000 0.000004 -6.476978 -11.327058 23.087236 10.710047 -2.552240 34.641558 -0.000001 -0.000001 -0.000002 0.000000 0.000001 -0.000001 0.000000 -0.000000 -0.000000 0.000000 -0.000000 -0.000000 0.000000 -0.000000 -0.000000 0.000000 -0.000000 -0.000000 0.000000 -0.000000 -0.000000 0.000000 -0.000000 -0.000000 0.000000 -0.000000 -0.000000 0.000000 -0.000000 -0.000000 0.000000 -0.000000 -0.000000 0.000000 -0.000000 -0.000000 0.000000 -0.000000 -0.000000 0.000001 -0.000001 0.000000 
1.565059 85.000267 0.422466 -3.295950 4.778798 -0.417057 -0.000000 -0.000000 -0.000000 -13.531557 8.030647 8.857181 23.147750 -4.758186 -0.310915 20.511869 6.892090 -8.604156 -0.000000 -0.000000 0.000000 -0.000000 -0.000000 0.000000 -0.000000 -0.000001 0.000000 -10.755956 -2.797086 2.341674 23.731670 5.658113 0.608254 16.900519 -3.740719 -2.416510 -0.000001 -0.000000 0.000000 -0.000001 -0.000000 0.000000 -0.000000 -0.000001 0.000001 4.208147 0.134238 1.770234 -2.958992 0.555494 0.306977 -2.942727 0.707221 0.309931 2.795146 -0.695085 1.803392 2.727267 0.531917 -0.631219 -0.000000 -0.000000 -0.000000 -0.000000 -0.000000 -0.000000 -0.000000 -0.000000 -0.000000 3.118942 -6.827336 -2.361794 -1.886521 18.402977 -77.547092 1.026783 -10.870035 -1.763344 -1.115367 2.028239 1.028988 10.744786 -0.391739 16.301216 -1.079751 26.386510 -6.022536 0.000001 0.000001 -0.000000 1.227005 0.786129 -5.250305 -1.796806 1.899178 -16.885814 -0.000001 -0.000001 -0.000002 -1.912954 4.474970 -9.769936 -0.009914 4.108223 -24.077665 -0.000000 0.000000 0.000000 -3.719248 10.820813 -7.265764 3.040086 3.466651 -29.651525 -0.000000 0.000000 -0.000004 -4.139315 12.840195 -17.560502 8.429361 2.581995 -31.029932 -0.000000 0.000000 0.000001 0.000000 0.000002 -0.000001 3.232920 0.066424 4.610714 3.946363 -6.003298 75.969298 0.281370 16.696034 -0.170304 -0.309225 -6.911336 -1.758053 15.777732 -2.706804 -17.213212 -2.296825 -30.807493 7.306548 0.000001 -0.000000 -0.000002 2.355612 -3.578838 8.171002 -2.157233 -2.434734 18.367321 0.000001 0.000000 0.000004 -1.984415 -5.670925 13.312961 0.247528 -5.075299 26.667359 0.000002 0.000001 -0.000000 -4.982007 -10.100553 10.561446 4.026109 -4.040387 33.049397 -0.000001 -0.000000 0.000000 -6.480987 -11.325243 22.941518 10.707921 -2.551300 34.496089 0.000000 0.000000 -0.000003 0.000000 0.000001 0.000000 -0.000000 -0.000000 -0.000000 -0.000000 -0.000000 -0.000000 -0.000000 -0.000000 -0.000000 -0.000000 -0.000000 -0.000000 -0.000000 -0.000000 -0.000000 0.000000 -0.000000 -0.000000 -0.000000 -0.000000 -0.000000 -0.000000 -0.000000 -0.000000 0.000000 -0.000000 -0.000000 0.000000 0.000000 0.000000 0.000000 0.000000 0.000000 -0.000000 -0.000000 -0.000000 
